<svg height="512pt" viewBox="0 0 512 512" width="512pt" xmlns="http://www.w3.org/2000/svg"><path d="m416 512h-320c-53.023438 0-96-42.976562-96-96v-320c0-53.023438 42.976562-96 96-96h320c53.023438 0 96 42.976562 96 96v320c0 53.023438-42.976562 96-96 96zm0 0" fill="#ffe6e2"/><path d="m354.671875 128h-112c-16.175781 0-29.328125 13.152344-29.328125 29.328125v25.953125c3.441406-1.21875 7.007812-1.953125 10.671875-1.953125 8.542969 0 16.578125 3.328125 22.625 9.375l42.671875 42.671875c6.046875 6.050781 9.375 14.082031 9.375 22.625s-3.328125 16.574219-9.375 22.625l-42.671875 42.671875c-6.046875 6.046875-14.082031 9.375-22.625 9.375-3.664063 0-7.230469-.734375-10.671875-1.953125v25.953125c0 16.175781 13.152344 29.328125 29.328125 29.328125h112c16.175781 0 29.328125-13.152344 29.328125-29.328125v-197.34375c0-16.175781-13.152344-29.328125-29.328125-29.328125zm0 0" fill="#fc573b"/><path d="m219.921875 308.527344c-3.984375-1.648438-6.578125-5.535156-6.578125-9.855469v-32h-74.671875c-5.902344 0-10.671875-4.785156-10.671875-10.671875s4.785156-10.671875 10.671875-10.671875h74.671875v-32c0-4.320313 2.59375-8.207031 6.578125-9.855469 3.980469-1.648437 8.574219-.738281 11.628906 2.320313l42.671875 42.671875c4.160156 4.160156 4.160156 10.910156 0 15.085937l-42.671875 42.671875c-3.054687 3.042969-7.648437 3.953125-11.628906 2.304688zm0 0" fill="#fd907e"/></svg>